<?xml version="1.0" standalone="no"?>
<!DOCTYPE svg PUBLIC "-//W3C//DTD SVG 20010904//EN"
 "http://www.w3.org/TR/2001/REC-SVG-20010904/DTD/svg10.dtd">
<svg version="1.0" xmlns="http://www.w3.org/2000/svg"
 width="1170.000000pt" height="203.000000pt" viewBox="0 0 1170.000000 203.000000"
 preserveAspectRatio="xMidYMid meet">
<metadata>
Created by potrace 1.15, written by Peter Selinger 2001-2017
</metadata>
<g transform="translate(0.000000,203.000000) scale(0.100000,-0.100000)"
fill="#FFFFFF" stroke="none">
<path d="M1541 1613 c-78 -219 -141 -401 -141 -405 0 -12 1188 -10 1195 2 6
10 285 789 285 796 0 2 -269 4 -599 4 l-598 0 -142 -397z"/>
<path d="M213 1973 l-183 -3 0 -27 0 -26 498 6 c407 4 503 3 529 -8 79 -34 96
-141 31 -201 l-34 -31 -214 -6 c-117 -4 -345 -7 -507 -7 l-293 0 0 -29 0 -29
428 4 c534 5 580 8 620 28 100 52 124 208 43 285 -52 49 -67 51 -413 49 -178
-2 -405 -4 -505 -5z"/>
<path d="M450 1883 c-332 -3 -391 -6 -378 -19 8 -7 861 -5 898 2 62 13 27 24
-67 22 -54 -2 -258 -4 -453 -5z"/>
<path d="M2768 1463 c-163 -466 -159 -439 -59 -412 59 16 110 69 135 140 10
30 23 65 29 79 5 14 11 30 12 35 2 6 30 88 64 183 59 168 70 212 52 212 -5 0
-52 -123 -106 -274 -99 -279 -111 -304 -173 -335 -20 -11 -19 -8 9 32 19 27
71 155 135 332 97 267 116 335 96 335 -4 0 -55 -131 -112 -291 -95 -263 -153
-399 -166 -386 -3 2 52 165 121 362 116 331 137 405 117 405 -4 0 -73 -188
-154 -417z"/>
<path d="M535 1810 c-242 -4 -442 -7 -445 -8 -3 -2 2 -6 10 -11 8 -4 214 -6
458 -3 365 4 442 7 442 18 0 8 -6 13 -12 12 -7 -1 -211 -5 -453 -8z"/>
<path d="M178 1733 c-57 -2 -98 -8 -98 -14 0 -13 911 -1 924 12 9 8 -591 9
-826 2z"/>
<path d="M488 1583 l-328 -3 0 -28 0 -27 520 2 c286 1 524 4 528 7 20 12 30
-17 36 -110 9 -134 8 -135 -64 -127 -37 3 -60 2 -64 -5 -5 -8 -114 -12 -364
-12 -196 0 -410 -3 -474 -6 -117 -7 -118 -7 -118 -32 l0 -25 488 8 c268 4 492
11 497 15 6 5 17 5 25 0 29 -19 71 -11 101 19 29 29 29 30 29 151 0 121 0 122
-29 151 -31 30 -86 40 -108 18 -8 -8 -13 -8 -17 0 -5 7 -61 10 -169 9 -89 -2
-309 -4 -489 -5z"/>
<path d="M323 1483 c-95 -3 -143 -7 -143 -14 0 -14 910 -2 924 12 9 8 -420 9
-781 2z"/>
<path d="M10091 1424 c-38 -32 -49 -80 -27 -123 17 -33 62 -61 96 -61 37 0 81
30 96 65 43 103 -79 191 -165 119z"/>
<path d="M3520 735 l0 -695 80 0 80 0 0 255 0 256 192 -213 c106 -117 211
-232 233 -256 l40 -43 106 3 107 3 -175 190 c-96 105 -201 220 -233 256 l-59
66 229 221 229 222 -107 0 -107 -1 -225 -218 -225 -218 -5 431 -5 431 -77 3
-78 3 0 -696z"/>
<path d="M423 1413 c-137 -2 -223 -7 -223 -13 0 -6 89 -10 238 -10 321 0 672
11 672 22 0 7 -139 8 -687 1z"/>
<path d="M498 1343 c-201 -2 -318 -7 -318 -13 0 -6 133 -10 368 -10 381 0 562
7 562 22 0 4 -66 7 -147 6 -82 -2 -291 -4 -465 -5z"/>
<path d="M308 1193 l-268 -3 0 -30 0 -30 514 2 514 3 26 -24 c40 -37 51 -93
29 -138 -10 -20 -31 -46 -46 -57 -28 -20 -42 -21 -500 -24 -260 -1 -487 -5
-504 -8 -28 -4 -33 -9 -33 -31 l0 -26 503 6 c343 3 511 9 532 17 36 14 82 55
101 92 8 15 14 51 14 80 0 62 -21 103 -76 144 l-37 29 -251 0 c-138 1 -371 -1
-518 -2z"/>
<path d="M1350 1015 l0 -135 610 0 610 0 0 135 0 135 -610 0 -610 0 0 -135z"/>
<path d="M969 1105 c-3 -2 -204 -5 -447 -5 -398 -1 -442 -3 -442 -17 0 -15 41
-16 450 -9 248 4 457 9 465 12 21 8 19 24 -3 24 -10 0 -21 -2 -23 -5z"/>
<path d="M183 1023 c-46 -2 -83 -8 -83 -13 0 -11 524 -14 758 -3 277 12 158
23 -220 21 -205 -1 -410 -4 -455 -5z"/>
<path d="M6140 1019 c-102 -17 -196 -76 -271 -171 l-39 -50 0 101 0 101 -80 0
-80 0 0 -480 0 -480 80 0 80 0 0 283 0 284 49 69 c94 134 184 197 286 198 l60
1 5 -110 5 -110 75 0 75 0 3 164 c2 106 -1 168 -8 176 -10 12 -43 18 -150 29
-19 2 -60 0 -90 -5z"/>
<path d="M6985 1024 c-108 -22 -137 -31 -180 -59 -123 -79 -196 -205 -215
-372 -21 -187 37 -364 156 -473 165 -152 451 -138 606 29 65 70 101 142 122
245 20 93 20 153 2 248 -23 118 -82 225 -163 292 -76 64 -236 108 -328 90z
m136 -145 c121 -37 191 -169 191 -359 0 -246 -111 -382 -301 -368 -103 7 -185
75 -227 188 -25 68 -30 240 -10 318 38 149 128 231 255 232 29 0 71 -5 92 -11z"/>
<path d="M8021 1019 c-78 -9 -169 -45 -210 -82 -63 -58 -90 -192 -56 -275 32
-75 85 -110 298 -196 241 -98 267 -116 267 -189 0 -50 -47 -100 -111 -117
-109 -30 -341 8 -456 74 l-43 25 0 -84 0 -84 53 -20 c177 -65 427 -73 563 -16
45 18 112 82 135 127 32 62 35 144 9 206 -39 90 -108 134 -379 237 -68 26
-136 59 -152 74 -58 52 -41 128 37 167 58 28 250 26 357 -4 42 -12 79 -22 82
-22 3 0 5 31 5 70 l0 69 -52 16 c-29 9 -96 20 -148 25 -106 11 -97 11 -199 -1z"/>
<path d="M11320 1016 c-30 -7 -73 -22 -95 -33 -51 -27 -130 -96 -167 -147
l-28 -39 0 101 0 102 -80 0 -80 0 0 -480 0 -480 80 0 80 0 0 283 0 284 38 59
c53 82 152 169 221 195 91 34 156 12 196 -67 18 -35 20 -63 22 -279 2 -132 3
-293 3 -357 l0 -118 80 0 80 0 0 293 c-1 336 -11 479 -38 540 -52 113 -180
173 -312 143z"/>
<path d="M4523 618 c2 -254 8 -395 15 -419 41 -125 178 -204 309 -180 112 22
188 74 292 201 l20 25 1 -102 0 -103 80 0 80 0 0 480 0 480 -80 0 -80 0 0
-280 0 -281 -36 -56 c-74 -116 -217 -223 -297 -223 -59 0 -118 50 -136 115 -7
25 -11 167 -11 383 l0 342 -81 0 -81 0 5 -382z"/>
<path d="M9810 935 l0 -65 135 0 135 0 0 -415 0 -415 215 0 215 0 0 65 0 65
-135 0 -135 0 0 415 0 415 -215 0 -215 0 0 -65z"/>
<path d="M2691 788 c172 -494 197 -565 208 -591 6 -16 11 -33 11 -38 0 -5 5
-9 10 -9 22 0 5 59 -116 403 -69 198 -123 361 -121 364 13 12 67 -109 144
-325 47 -130 86 -241 88 -247 2 -11 12 -36 29 -77 13 -33 26 -36 26 -7 0 20
-145 437 -196 563 -13 32 -36 74 -50 93 l-26 35 28 -15 c63 -33 69 -45 251
-564 16 -45 33 -57 33 -24 0 23 -162 490 -187 540 -29 56 -106 101 -174 101
l-28 0 70 -202z"/>
<path d="M188 950 c-113 -6 -142 -20 -42 -20 416 -2 832 2 851 6 12 4 23 11
23 16 0 10 -624 9 -832 -2z"/>
<path d="M1400 822 c0 -7 204 -588 261 -744 l21 -58 600 0 c476 0 599 3 595
12 -2 7 -62 175 -132 373 -70 198 -133 375 -141 393 l-13 32 -595 0 c-328 0
-596 -4 -596 -8z"/>
<path d="M665 799 c-209 -3 -406 -7 -437 -8 -56 -1 -58 -2 -58 -28 l0 -26 471
7 c355 5 474 4 485 -5 8 -7 27 -9 46 -5 78 16 73 24 76 -103 1 -63 -2 -119 -7
-124 -5 -5 -22 -4 -45 4 -27 10 -41 10 -60 1 -17 -7 -179 -13 -496 -18 l-470
-7 0 -26 0 -26 452 3 c249 1 475 7 501 12 28 6 55 6 65 1 9 -4 22 -7 27 -6 6
2 22 6 37 9 44 10 58 50 58 164 0 106 -12 157 -39 172 -10 5 -56 9 -104 9 -47
-1 -94 1 -104 3 -10 2 -189 1 -398 -3z"/>
<path d="M548 700 c-196 -3 -360 -8 -364 -12 -4 -5 15 -8 42 -8 194 -1 795 2
819 4 86 8 82 7 60 16 -11 5 -60 8 -110 7 -49 -1 -251 -4 -447 -7z"/>
<path d="M1079 636 c-3 -3 -189 -6 -415 -6 -402 -1 -563 -9 -384 -20 144 -8
830 4 831 15 0 11 -24 19 -32 11z"/>
<path d="M288 553 c-60 -2 -98 -8 -98 -14 0 -8 110 -9 358 -5 196 4 405 6 465
6 65 0 107 4 107 10 0 9 -577 11 -832 3z"/>
<path d="M148 403 l-98 -4 0 -26 0 -26 499 7 c439 7 502 6 528 -8 87 -44 89
-177 4 -221 -21 -10 -135 -15 -529 -21 l-503 -7 3 -24 3 -25 435 1 c583 2 601
3 662 68 65 68 65 168 0 236 -55 58 -45 57 -494 55 -227 -1 -457 -4 -510 -5z"/>
<path d="M368 313 c-193 -2 -278 -7 -278 -14 0 -8 123 -10 428 -8 455 4 502 6
502 20 0 5 -82 8 -187 7 -104 -2 -313 -4 -465 -5z"/>
<path d="M9082 260 c-99 -60 -94 -192 10 -246 77 -40 177 13 194 102 4 23 0
50 -10 79 -29 74 -125 107 -194 65z"/>
<path d="M463 243 c-224 -2 -353 -7 -353 -13 0 -11 825 -14 879 -4 64 13 28
24 -71 22 -57 -2 -262 -4 -455 -5z"/>
<path d="M548 170 c-393 -4 -474 -9 -457 -24 2 -2 212 -1 467 2 380 4 462 7
462 18 0 8 -6 13 -12 12 -7 -1 -214 -5 -460 -8z"/>
</g>
</svg>
