<?xml version="1.0" standalone="no"?>
<!DOCTYPE svg PUBLIC "-//W3C//DTD SVG 20010904//EN"
 "http://www.w3.org/TR/2001/REC-SVG-20010904/DTD/svg10.dtd">
<svg version="1.0" xmlns="http://www.w3.org/2000/svg"
 width="378.000000pt" height="252.000000pt" viewBox="0 0 378.000000 252.000000"
 preserveAspectRatio="xMidYMid meet">
<metadata>
Created by potrace 1.16, written by Peter Selinger 2001-2019
</metadata>
<g transform="translate(0.000000,252.000000) scale(0.100000,-0.100000)"
fill="#000000" stroke="none">
<path d="M1991 2278 c-233 -651 -272 -771 -259 -779 15 -10 1330 -12 1429 -3
l66 7 16 46 c8 25 45 129 82 231 164 453 254 713 249 721 -3 5 -341 9 -753 9
l-747 0 -83 -232z"/>
<path d="M207 2463 l-197 -3 0 -38 0 -37 632 3 c616 3 634 2 665 -17 68 -43
91 -122 53 -189 -13 -22 -36 -50 -51 -62 -29 -20 -42 -21 -547 -30 -284 -5
-568 -10 -629 -10 l-113 0 0 -39 0 -39 493 5 c575 5 781 14 823 36 74 39 114
112 114 210 0 85 -29 141 -95 182 l-48 30 -451 1 c-248 0 -540 -1 -649 -3z"/>
<path d="M523 2351 c-248 -3 -455 -9 -459 -13 -4 -5 -4 -11 0 -15 20 -21 1124
-13 1157 8 45 27 -17 29 -698 20z"/>
<path d="M3600 2293 c-52 -137 -251 -699 -289 -815 -22 -70 -41 -141 -41 -159
l0 -32 51 6 c63 8 127 44 164 93 31 41 85 179 189 485 64 190 77 249 56 249
-14 0 -30 -40 -143 -347 -53 -145 -106 -282 -118 -305 -20 -41 -66 -98 -79
-98 -3 0 8 30 26 68 71 148 274 714 274 765 0 18 -4 27 -12 25 -13 -4 -48 -92
-177 -443 -71 -191 -138 -355 -152 -370 -5 -5 32 110 82 255 147 426 199 586
205 634 9 65 -10 59 -36 -11z"/>
<path d="M541 2259 c-249 -5 -456 -11 -459 -14 -3 -3 -2 -8 2 -12 9 -10 1042
-7 1103 2 28 4 43 11 43 21 0 16 43 16 -689 3z"/>
<path d="M188 2161 c-106 -6 -137 -14 -103 -27 23 -9 1045 5 1105 14 l45 8
-40 7 c-47 8 -849 6 -1007 -2z"/>
<path d="M1457 1984 c-3 -3 -178 -5 -389 -4 -211 0 -499 -2 -641 -6 l-257 -7
0 -40 0 -40 202 7 c112 3 412 6 668 7 l465 0 7 -26 c11 -42 21 -201 14 -229
-6 -23 -11 -25 -88 -30 -46 -3 -324 -10 -618 -15 -294 -6 -560 -14 -590 -18
-53 -8 -55 -9 -58 -41 l-3 -32 93 0 c51 0 309 5 573 11 264 6 529 11 590 11
l109 0 33 33 33 33 0 155 c0 152 -1 156 -26 186 -28 33 -100 61 -117 45z"/>
<path d="M440 1850 c-129 -4 -236 -8 -237 -8 -2 -1 -3 -7 -3 -13 0 -15 1102
-6 1139 8 56 22 -361 28 -899 13z"/>
<path d="M438 1761 c-195 -6 -243 -12 -204 -27 21 -8 1059 3 1103 12 18 3 30
10 27 15 -5 10 -575 9 -926 0z"/>
<path d="M373 1670 c-162 -5 -205 -13 -140 -25 46 -9 1074 1 1110 10 15 4 27
11 27 16 0 9 -717 9 -997 -1z"/>
<path d="M38 1483 c-14 -3 -18 -15 -18 -45 l0 -41 645 5 645 5 30 -33 c16 -19
34 -51 41 -73 11 -36 9 -45 -12 -87 -41 -81 -57 -88 -232 -96 -84 -3 -343 -7
-577 -8 -234 -1 -450 -5 -480 -8 -55 -7 -55 -7 -58 -44 l-3 -38 48 0 c418 3
1212 22 1244 30 44 12 112 68 134 110 21 42 28 120 15 170 -14 52 -36 83 -92
128 l-41 32 -636 -1 c-350 -1 -644 -3 -653 -6z"/>
<path d="M1660 1260 l0 -170 765 0 765 0 0 170 0 170 -765 0 -765 0 0 -170z"/>
<path d="M565 1370 c-269 -3 -491 -7 -492 -8 -2 -1 -3 -9 -3 -19 0 -15 43 -16
568 -10 312 3 575 9 585 13 9 3 17 12 17 20 0 11 -19 14 -92 12 -51 -1 -313
-5 -583 -8z"/>
<path d="M155 1273 c-59 -6 -64 -20 -10 -28 55 -9 1015 1 1062 11 94 19 -23
24 -495 22 -284 -1 -535 -3 -557 -5z"/>
<path d="M3250 1222 c0 -6 152 -445 347 -999 14 -42 43 -59 43 -27 0 35 -35
144 -165 523 -75 216 -134 395 -132 398 10 10 104 -229 252 -642 56 -158 69
-185 86 -185 20 0 6 58 -55 237 -110 323 -167 475 -206 551 -38 73 -38 90 1
51 34 -34 90 -165 189 -444 92 -258 103 -285 123 -285 20 0 -3 90 -83 321
-146 418 -157 440 -255 485 -48 23 -145 33 -145 16z"/>
<path d="M430 1190 c-304 -7 -350 -11 -350 -32 0 -15 1146 -6 1161 9 7 7 11
14 8 17 -10 9 -528 13 -819 6z"/>
<path d="M1720 1021 c0 -9 107 -317 266 -765 l88 -248 743 4 c464 2 746 7 752
13 7 9 -159 494 -311 905 l-35 95 -751 3 c-455 1 -752 -2 -752 -7z"/>
<path d="M480 990 c-151 -3 -281 -9 -288 -13 -6 -5 -12 -21 -12 -38 l0 -29
580 6 c448 6 588 4 617 -5 28 -9 50 -10 83 -2 66 15 71 4 68 -149 l-3 -125
-25 1 c-14 1 -38 3 -55 4 -16 1 -84 -3 -150 -9 -66 -5 -344 -13 -617 -17
l-498 -7 0 -40 0 -39 548 7 c301 4 583 11 627 15 44 3 92 3 107 -1 34 -9 102
8 123 31 39 43 45 293 8 369 -17 33 -22 37 -73 43 -63 7 -637 6 -1040 -2z"/>
<path d="M555 870 c-371 -9 -355 -8 -355 -21 0 -12 1164 -9 1176 4 4 4 4 10 0
15 -10 9 -454 11 -821 2z"/>
<path d="M1055 789 c-148 -3 -387 -7 -530 -8 -252 -2 -331 -9 -274 -24 31 -9
757 -7 956 1 83 4 155 11 159 15 9 9 -15 28 -31 25 -5 -1 -131 -5 -280 -9z"/>
<path d="M243 683 c-18 -2 -33 -8 -33 -12 0 -19 88 -21 555 -16 510 6 615 10
615 26 0 9 -1067 11 -1137 2z"/>
<path d="M277 503 l-247 -3 0 -40 0 -40 383 5 c210 3 465 7 567 10 250 5 332
-4 371 -41 80 -76 52 -215 -49 -244 -22 -6 -294 -15 -652 -22 -338 -6 -617
-12 -618 -14 -2 -1 -1 -16 3 -33 l7 -31 521 0 c529 0 731 9 790 33 38 16 94
77 113 123 19 46 17 122 -5 169 -22 47 -73 98 -116 116 -31 13 -539 19 -1068
12z"/>
<path d="M175 383 c-94 -5 -118 -18 -49 -29 59 -9 1082 2 1107 11 9 4 17 11
17 16 0 8 -889 10 -1075 2z"/>
<path d="M553 301 c-390 -6 -458 -10 -441 -26 3 -3 203 -8 444 -11 403 -5 684
2 701 19 25 25 -53 27 -704 18z"/>
<path d="M590 210 c-427 -7 -510 -13 -510 -33 0 -11 1087 -2 1143 9 15 4 27
13 27 20 0 16 50 15 -660 4z"/>
</g>
</svg>
